# xmcd
#
# Track frame offsets:
#	150
#	25596
#	44579
#	60112
#	74995
#	95275
#	110017
#	125489
#	139527
#	155671
#	170749
#	186650
#	203200
#	221484
#	239329
#	254690
#	269931
#	284945
#
# Disc length: 3955 seconds
#
# Revision: 2
# Processed by: cddbd v1.5.2PL0 Copyright (c) Steve Scherf et al.
# Submitted via: audiograbber 1.83.01
#
DISCID=2e0f7112
DTITLE=Rosanne Cash - The Essential - CD 1
DYEAR=2011
DGENRE=Country
TTITLE0=Can I Still Believe In You
TTITLE1=Baby, Better Start Turnin' Em Down
TTITLE2=No Memories Hangin' Round (Duet With Bobby Bare)
TTITLE3=Seven Year Ache
TTITLE4=Blue Moon With Heartache [Album Version]
TTITLE5=My Baby Thinks He's A Train
TTITLE6=It Hasn't Happened Yet
TTITLE7=I Wonder
TTITLE8=If It Weren't For Him (Duet With Vince Gill)
TTITLE9=I Don't Know Why You Don't Want Me
TTITLE10=Never Be You
TTITLE11=Hold On
TTITLE12=Runaway Train
TTITLE13=The Way We Make A Broken Heart
TTITLE14=If You Change Your Mind
TTITLE15=It's Such A Small World (Duet With Rodney Crowell)
TTITLE16=Tennessee Flat Top Box
TTITLE17=I Don't Want To Spoil The Party
EXTD=
EXTT0=
EXTT1=
EXTT2=
EXTT3=
EXTT4=
EXTT5=
EXTT6=
EXTT7=
EXTT8=
EXTT9=
EXTT10=
EXTT11=
EXTT12=
EXTT13=
EXTT14=
EXTT15=
EXTT16=
EXTT17=
PLAYORDER=
